<?xml version="1.0" encoding="UTF-8" ?>
<!DOCTYPE svg PUBLIC "-//W3C//DTD SVG 1.1//EN" "http://www.w3.org/Graphics/SVG/1.1/DTD/svg11.dtd">
<svg width="1080pt" height="1080pt" viewBox="0 0 1080 1080" version="1.1" xmlns="http://www.w3.org/2000/svg">
<g id="#ffffffff">
</g>
<g id="#000000ff">
<path fill="#000000" opacity="1.00" d=" M 926.75 181.13 C 928.40 187.48 926.70 194.10 926.69 200.56 C 925.85 208.17 925.18 215.80 924.34 223.42 C 922.97 238.65 920.89 253.80 918.25 268.86 C 916.61 278.79 915.05 288.77 912.38 298.49 C 910.35 306.41 908.75 314.44 907.17 322.46 C 906.90 323.89 906.34 325.24 905.71 326.55 C 905.45 328.25 905.15 329.96 904.45 331.54 C 902.66 335.34 903.20 339.79 901.25 343.53 C 900.45 344.71 900.51 346.14 900.42 347.50 C 897.58 356.37 894.48 365.15 891.87 374.09 C 890.68 377.51 889.88 381.11 888.10 384.29 C 888.06 385.03 887.99 386.50 887.95 387.24 C 887.64 387.59 887.03 388.27 886.72 388.62 C 885.67 395.33 881.55 401.05 879.61 407.51 C 877.94 414.09 874.67 420.11 872.39 426.48 C 869.93 432.23 867.41 437.99 864.06 443.28 C 860.42 439.92 859.34 434.92 857.18 430.65 C 854.15 424.49 852.12 417.78 847.65 412.43 C 845.38 408.56 841.42 406.45 837.64 404.37 C 831.17 408.58 826.15 414.51 820.89 420.05 C 806.21 436.33 791.94 452.95 777.05 469.03 C 772.59 473.93 767.61 478.35 763.31 483.40 C 745.21 501.26 727.73 519.77 708.79 536.74 C 686.76 557.79 663.08 577.00 639.86 596.71 C 618.32 612.98 597.54 630.29 575.08 645.33 C 554.44 661.01 532.31 674.56 510.71 688.83 C 491.86 701.16 472.15 712.11 452.77 723.57 C 426.82 738.49 399.99 751.85 373.21 765.20 C 369.35 766.93 365.59 769.45 361.23 769.45 C 354.90 767.74 350.59 762.37 345.49 758.61 C 341.28 754.96 335.92 751.91 334.22 746.24 C 338.05 743.39 341.96 740.64 346.08 738.23 C 371.34 722.51 396.57 706.70 421.57 690.54 C 425.72 688.05 429.18 684.56 433.43 682.24 C 456.15 666.45 479.01 650.80 500.82 633.76 C 511.27 625.88 521.64 617.89 532.11 610.03 C 546.16 598.09 560.79 586.85 574.69 574.72 C 583.51 568.31 591.34 560.71 599.57 553.59 C 618.13 536.83 637.15 520.55 654.63 502.64 C 671.43 487.02 687.05 470.19 703.01 453.72 C 711.53 444.64 719.85 435.38 728.30 426.23 C 740.46 411.70 752.85 397.32 764.01 382.00 C 768.14 377.33 771.43 372.02 775.04 366.95 C 781.53 358.08 788.52 349.55 794.04 340.01 C 796.13 336.69 799.23 332.40 796.65 328.51 C 792.34 322.18 787.15 316.46 782.95 310.05 C 796.42 297.34 811.30 286.25 825.43 274.30 C 848.93 254.61 870.66 232.98 892.99 212.02 C 904.05 201.53 914.69 190.52 926.75 181.13 Z" />
<path fill="#000000" opacity="1.00" d=" M 465.02 220.77 C 473.43 218.33 482.29 219.02 490.92 218.05 C 510.10 218.05 529.30 217.98 548.49 217.97 L 549.42 218.52 C 555.15 218.40 560.88 218.93 566.60 219.34 C 578.39 220.02 589.93 222.83 601.23 226.15 C 605.44 227.51 610.23 227.32 613.99 229.91 C 615.22 229.95 616.46 229.99 617.71 230.02 C 618.09 230.36 618.86 231.03 619.24 231.37 C 621.08 231.47 622.91 231.80 624.53 232.77 C 628.32 233.51 632.01 234.80 635.55 236.36 C 636.90 236.68 638.24 237.04 639.59 237.42 C 634.02 240.58 626.59 238.13 621.42 242.29 C 620.13 243.03 620.08 244.54 619.74 245.82 C 622.56 247.47 625.42 249.13 627.73 251.49 C 625.78 260.90 621.75 269.66 619.22 278.90 C 618.60 281.62 617.16 284.30 617.58 287.16 C 618.78 289.24 620.63 291.42 623.19 291.66 C 625.09 290.92 626.40 289.29 627.81 287.90 C 631.19 276.62 636.69 266.11 640.35 254.93 C 641.91 249.56 643.27 243.39 640.43 238.20 C 646.52 240.42 652.54 242.83 658.51 245.36 C 662.15 245.90 665.12 248.35 668.49 249.67 C 674.22 253.02 680.26 255.78 686.13 258.87 C 697.89 265.58 709.56 272.52 720.46 280.58 C 736.36 291.31 750.46 304.45 764.18 317.78 C 769.13 322.10 773.56 326.98 777.94 331.87 C 778.43 333.54 776.93 334.92 776.34 336.37 C 768.88 348.02 760.81 359.28 751.98 369.94 C 748.68 374.18 745.24 378.36 741.18 381.90 C 729.73 370.65 719.12 358.55 707.13 347.87 C 696.21 336.12 682.69 327.32 669.41 318.52 C 659.99 313.35 650.76 307.86 641.29 302.77 C 636.03 299.52 630.09 297.39 624.14 295.81 C 623.65 295.52 622.66 294.96 622.17 294.68 C 617.58 294.35 613.64 291.66 609.22 290.64 C 598.59 288.14 588.56 283.24 577.55 282.36 C 574.68 281.11 571.55 280.79 568.52 280.14 C 565.85 279.91 563.20 279.57 560.54 279.37 C 550.92 277.63 541.10 277.38 531.39 276.61 C 504.03 275.38 476.77 279.40 450.14 285.38 C 445.59 286.93 440.68 287.33 436.31 289.36 C 422.91 291.06 411.76 299.48 399.19 303.72 C 398.77 304.08 397.94 304.79 397.52 305.14 C 392.43 306.53 388.22 309.89 383.56 312.22 C 372.76 317.82 362.89 324.97 352.84 331.78 C 342.72 339.27 333.16 347.50 324.14 356.29 C 322.45 357.90 320.83 359.58 319.18 361.22 C 311.08 369.11 303.63 377.68 296.92 386.78 C 286.55 399.31 278.37 413.46 270.85 427.84 C 265.82 436.77 261.67 446.17 257.80 455.66 C 255.56 463.23 252.71 470.62 250.34 478.16 C 248.26 482.61 248.15 487.60 246.24 492.09 C 242.99 508.90 240.21 525.86 239.49 542.98 C 239.36 561.05 239.32 579.17 241.79 597.11 C 242.34 601.39 242.32 605.80 243.81 609.92 C 244.88 612.40 244.11 615.21 245.10 617.71 C 246.86 622.66 247.00 628.01 248.88 632.92 C 250.79 638.41 252.48 643.97 254.32 649.49 C 256.59 656.94 260.22 663.90 262.80 671.25 C 267.13 680.92 272.35 690.16 277.31 699.52 C 286.53 714.65 296.77 729.19 308.45 742.54 C 332.57 769.68 361.75 792.49 394.42 808.45 C 406.65 814.78 419.48 819.93 432.51 824.35 C 440.45 826.10 448.18 828.65 456.00 830.85 C 493.56 839.03 532.66 839.65 570.55 833.37 C 580.96 832.03 590.96 828.68 601.01 825.84 C 605.16 825.13 609.13 823.70 613.01 822.13 C 628.48 816.70 643.39 809.75 657.69 801.74 C 668.53 795.48 678.84 788.38 689.00 781.09 C 698.30 773.39 707.76 765.82 716.17 757.13 C 728.23 744.86 739.60 731.87 749.61 717.85 C 755.21 708.37 761.81 699.47 766.58 689.50 C 770.74 680.74 775.41 672.21 779.14 663.25 C 781.55 655.75 785.36 648.78 787.39 641.16 C 788.95 636.86 789.29 632.23 791.03 628.01 C 793.41 617.03 797.54 606.32 798.02 595.00 C 797.67 589.30 798.69 583.66 798.51 577.97 C 798.47 567.64 798.52 557.31 798.49 546.98 C 797.22 533.88 799.16 520.59 796.38 507.61 C 794.02 498.88 792.69 489.87 789.98 481.24 C 793.84 475.48 799.05 470.79 803.51 465.50 C 814.04 453.62 824.25 441.43 835.48 430.19 C 836.10 430.12 837.34 429.99 837.96 429.93 C 842.48 438.42 845.91 447.56 848.19 456.88 C 848.48 457.38 849.05 458.36 849.33 458.86 C 849.51 462.53 851.69 465.71 851.83 469.42 C 857.67 491.29 862.80 513.62 862.61 536.38 C 863.50 547.20 862.72 558.11 863.01 568.97 C 862.39 586.36 862.08 603.88 858.97 621.08 C 856.89 629.95 854.85 638.84 852.49 647.64 C 850.50 652.11 850.20 657.14 848.14 661.59 C 848.10 662.25 848.02 663.57 847.98 664.23 C 847.66 664.59 847.03 665.32 846.71 665.68 C 846.48 668.75 844.72 671.41 844.29 674.44 C 842.25 679.14 840.24 683.87 838.63 688.74 C 836.68 691.31 836.23 694.64 834.77 697.48 C 821.17 727.22 804.68 755.93 783.02 780.57 C 762.73 804.46 739.42 825.89 713.32 843.29 C 708.79 846.11 704.22 848.87 699.84 851.92 C 688.12 858.22 676.84 865.45 664.38 870.27 C 655.15 875.13 645.13 878.35 635.53 882.42 C 632.91 883.62 630.04 884.09 627.43 885.28 C 617.85 887.44 608.83 891.83 599.03 893.22 C 594.66 894.88 590.00 895.39 585.45 896.36 C 582.45 896.57 579.50 897.18 576.55 897.69 C 566.90 898.40 557.28 899.71 547.59 899.60 C 543.24 900.50 538.74 899.48 534.40 900.40 C 522.28 900.78 510.17 901.22 498.03 901.03 C 494.08 901.31 490.28 900.03 486.36 899.89 L 485.57 899.49 C 480.20 899.75 474.88 898.90 469.55 898.36 C 465.44 897.80 461.34 897.14 457.26 896.45 C 447.54 893.82 437.45 892.60 427.97 889.09 C 422.97 887.02 417.42 886.76 412.51 884.39 C 409.02 882.57 405.00 882.35 401.48 880.60 C 390.54 876.61 379.99 871.70 369.56 866.55 C 361.02 863.14 353.47 857.80 345.38 853.53 C 340.84 851.18 336.72 848.14 332.51 845.28 C 324.48 839.68 316.00 834.68 308.63 828.20 C 299.08 820.29 289.45 812.41 280.91 803.40 C 271.88 795.01 263.73 785.71 255.72 776.34 C 250.23 769.40 245.04 762.22 239.72 755.15 C 227.20 737.36 217.20 717.99 207.80 698.42 C 205.53 692.91 202.77 687.60 201.17 681.85 C 198.01 676.09 196.65 669.67 194.75 663.44 C 197.83 665.36 199.40 668.70 201.44 671.55 C 205.20 674.61 210.03 676.90 214.98 676.52 C 220.17 676.36 225.52 677.06 230.55 675.41 C 234.40 673.92 237.68 671.36 241.01 668.98 C 244.96 666.20 246.82 661.57 249.26 657.58 C 250.57 652.55 250.14 647.19 249.34 642.10 C 247.05 637.58 244.80 632.39 239.95 630.07 C 235.66 627.14 230.29 627.84 225.43 628.34 C 219.75 628.62 213.84 629.01 208.77 631.85 C 205.02 633.99 200.60 635.38 197.89 638.94 C 193.95 643.90 192.85 650.42 193.37 656.61 C 191.32 654.54 190.72 651.57 189.88 648.88 C 187.89 640.49 185.85 632.10 184.34 623.62 C 182.48 616.01 182.28 608.10 180.63 600.47 C 180.33 593.56 178.60 586.74 179.14 579.82 C 179.20 570.72 178.01 561.66 178.63 552.57 C 179.56 545.95 178.56 539.23 179.17 532.59 C 180.12 525.97 180.24 519.26 181.34 512.66 C 181.47 507.85 183.68 503.39 183.64 498.55 C 186.14 484.82 189.15 471.10 193.82 457.90 C 196.87 448.19 199.47 438.29 204.09 429.17 C 211.04 411.00 220.55 393.93 230.41 377.21 C 237.83 365.39 245.82 353.87 254.90 343.25 C 254.35 350.41 258.20 356.73 259.76 363.51 C 260.17 364.99 260.01 366.61 259.28 367.98 C 254.47 364.66 249.26 360.59 243.08 361.06 C 241.25 361.98 240.75 363.96 240.74 365.85 C 242.57 369.04 245.21 371.71 248.08 374.00 C 255.94 380.50 263.50 387.45 272.19 392.86 C 275.19 395.69 279.15 397.07 283.07 398.10 C 286.58 397.25 289.02 392.58 286.29 389.63 C 282.42 385.74 277.33 383.18 273.83 378.88 C 281.32 376.39 289.31 377.93 297.04 377.50 C 298.80 377.66 300.21 376.47 301.69 375.72 C 302.48 374.19 303.94 372.76 303.52 370.88 C 301.07 367.70 296.67 367.37 293.06 366.38 C 287.34 364.83 281.40 364.78 275.59 363.91 C 274.48 363.03 273.18 362.51 271.81 362.22 C 267.88 356.29 265.06 349.57 263.27 342.69 C 262.38 341.71 261.49 340.73 260.61 339.75 C 259.00 340.31 257.42 340.95 255.84 341.57 C 271.58 322.47 289.52 305.28 308.77 289.75 C 322.38 279.24 336.87 269.86 351.64 261.07 C 352.96 264.48 352.37 268.25 353.08 271.80 C 355.51 275.01 357.06 278.74 358.33 282.54 C 362.20 285.96 363.23 291.20 365.80 295.46 C 369.08 299.92 371.94 304.68 375.30 309.09 C 377.73 311.59 382.19 311.67 383.67 308.10 C 382.12 303.11 380.90 297.99 378.60 293.27 C 377.58 291.23 376.96 289.02 376.73 286.76 C 381.03 283.05 387.19 281.01 389.38 275.31 C 386.73 272.98 382.58 271.70 379.41 273.75 C 376.96 275.25 374.16 275.74 371.32 275.59 C 370.28 273.38 369.11 271.22 367.37 269.48 C 367.26 267.12 368.13 265.06 370.10 263.71 C 373.15 262.94 375.70 260.86 377.71 258.52 C 379.29 256.60 378.08 253.99 377.93 251.82 C 375.63 251.37 373.32 250.95 371.02 250.59 C 381.29 246.77 391.13 241.83 401.46 238.16 C 404.73 237.22 407.53 234.89 411.06 234.82 C 428.65 228.86 446.66 223.86 465.02 220.77 M 485.85 224.45 C 486.75 226.46 486.92 230.17 489.90 229.96 C 495.53 229.88 501.76 229.69 506.13 233.89 C 506.41 235.09 506.70 236.30 507.00 237.51 C 506.08 242.06 503.28 245.85 500.45 249.41 C 497.29 253.36 495.70 258.34 492.44 262.21 C 489.86 264.75 489.02 268.40 487.71 271.66 C 487.92 273.44 490.01 273.98 491.50 274.25 C 496.82 274.87 502.25 275.43 507.60 274.66 C 511.72 274.40 515.87 274.03 519.91 273.06 C 521.84 272.85 522.29 270.76 523.17 269.38 C 522.54 268.09 521.93 266.79 521.33 265.49 C 516.86 263.41 511.71 264.14 507.22 262.03 C 508.47 256.64 512.74 252.80 514.86 247.81 C 516.40 244.09 518.60 240.58 519.18 236.53 C 520.42 231.20 518.00 225.51 513.85 222.10 C 510.18 218.53 504.70 219.42 500.07 218.67 C 494.99 219.02 488.60 219.42 485.85 224.45 M 564.36 222.08 C 559.38 223.93 554.89 227.70 552.99 232.76 C 549.04 237.36 548.80 243.59 547.54 249.25 C 546.31 254.83 547.74 260.52 548.74 266.01 C 551.29 272.54 557.53 279.09 565.15 277.98 C 571.53 277.37 575.93 272.10 579.80 267.55 C 586.39 259.17 586.14 247.96 585.99 237.86 C 586.09 231.91 581.59 227.42 577.41 223.80 C 573.91 220.53 568.65 221.16 564.36 222.08 M 429.46 230.28 C 425.81 231.46 424.33 235.45 423.08 238.72 C 423.04 248.54 421.94 258.37 422.70 268.20 C 423.36 273.46 422.70 278.78 423.12 284.05 C 423.85 287.36 427.57 288.17 430.22 289.40 C 433.83 285.60 432.87 280.08 433.50 275.33 C 434.96 273.25 436.75 271.43 438.81 269.93 C 441.07 270.03 443.37 269.82 445.61 270.25 C 449.22 273.06 452.18 276.73 456.15 279.10 C 458.04 279.81 460.74 280.04 461.77 277.87 C 464.15 275.05 462.09 271.27 460.57 268.55 C 456.42 263.34 454.21 256.95 450.35 251.55 C 445.17 244.32 441.12 236.20 434.72 229.90 C 432.97 229.91 431.17 229.79 429.46 230.28 M 684.11 267.22 C 676.96 270.91 672.43 277.79 668.37 284.46 C 665.84 288.93 664.74 294.00 662.78 298.71 C 660.94 302.36 662.97 306.36 663.66 310.06 C 664.33 313.56 668.09 314.61 670.75 316.25 C 674.07 317.85 677.60 320.02 681.44 319.42 C 684.39 318.21 687.34 316.85 689.85 314.85 C 693.50 311.20 697.29 307.60 700.23 303.32 C 704.57 296.28 708.76 288.43 707.48 279.86 C 707.80 274.05 703.22 269.85 698.56 267.29 C 693.88 265.87 688.80 265.85 684.11 267.22 M 311.28 291.08 C 311.11 295.46 314.33 298.79 316.82 302.03 C 320.15 305.86 322.04 310.76 325.86 314.20 C 329.18 317.36 331.63 321.17 332.92 325.58 C 333.46 328.93 333.03 333.16 329.24 334.35 C 325.37 336.54 321.91 333.24 319.22 330.81 C 310.73 323.63 304.07 314.50 295.20 307.76 C 294.04 306.28 292.63 307.65 291.39 308.22 C 291.03 308.80 290.32 309.94 289.96 310.52 C 289.11 317.47 295.15 322.10 298.98 327.01 C 301.86 331.66 306.03 335.27 309.37 339.55 C 311.44 342.49 315.11 343.47 318.22 344.89 C 323.61 347.15 330.42 347.02 334.97 343.03 C 339.53 339.42 345.96 335.71 345.54 329.02 C 346.00 321.61 341.47 315.56 337.93 309.52 C 331.27 302.28 326.87 292.90 318.54 287.26 C 315.65 286.11 311.99 288.04 311.28 291.08 M 213.46 414.01 C 213.16 417.41 215.93 419.85 218.02 422.13 C 223.97 427.83 229.42 434.09 236.10 438.98 C 233.21 439.00 230.30 439.15 227.44 438.68 C 220.96 438.03 214.46 437.50 207.96 437.47 C 205.88 437.57 203.19 437.28 201.96 439.37 C 200.10 442.48 197.96 445.79 198.53 449.59 C 208.76 454.37 218.69 459.80 228.28 465.74 C 234.76 468.30 241.63 469.82 248.02 472.69 C 248.73 472.00 249.44 471.33 250.17 470.66 C 249.99 468.08 249.56 465.33 247.49 463.55 C 241.49 457.81 232.77 456.32 226.49 450.93 C 234.66 451.79 242.88 451.44 251.08 451.51 C 252.79 451.58 254.82 451.25 255.55 449.45 C 257.37 445.84 254.40 442.41 252.12 439.86 C 248.95 436.70 247.06 432.23 242.95 430.11 C 240.50 428.76 238.88 426.45 237.56 424.05 C 241.86 425.80 246.57 426.21 250.79 428.19 C 256.03 429.88 261.42 431.97 267.03 431.37 C 267.02 428.94 267.00 426.52 266.99 424.10 C 259.56 418.67 250.46 416.80 242.26 412.92 C 238.88 411.59 235.66 409.64 231.99 409.24 C 227.66 407.10 222.64 407.27 217.97 406.48 C 213.81 405.83 213.20 411.03 213.46 414.01 M 186.23 494.33 C 185.92 496.20 185.99 498.11 185.90 500.01 C 188.63 503.14 192.68 504.76 196.75 505.16 C 200.21 505.64 204.88 507.60 204.53 511.80 C 203.88 515.03 202.52 518.13 201.10 521.09 C 198.65 522.84 195.41 522.44 192.56 522.51 C 191.37 522.12 190.18 521.75 188.99 521.38 C 187.11 522.08 185.23 522.77 183.30 523.29 C 181.91 524.67 180.87 526.33 180.10 528.13 C 182.09 532.43 187.24 532.57 191.27 533.42 C 194.35 533.60 196.92 535.62 199.98 535.90 C 211.71 536.61 223.26 539.37 235.07 539.05 C 237.60 536.01 236.78 530.61 233.17 528.82 C 228.03 527.46 222.50 527.65 217.50 525.80 C 214.63 524.77 215.58 521.28 215.77 518.98 C 216.30 515.80 215.54 512.19 217.21 509.32 C 223.98 507.47 231.01 510.57 237.85 509.20 C 239.12 508.75 240.00 507.67 241.04 506.88 C 241.04 506.18 241.03 504.77 241.03 504.06 C 239.50 502.28 238.05 500.27 235.82 499.34 C 232.41 497.60 228.38 498.32 224.87 496.88 C 220.90 495.41 216.72 494.71 212.48 494.93 C 205.90 492.51 198.80 493.76 191.95 493.48 C 190.06 493.71 187.75 492.85 186.23 494.33 M 211.58 568.62 C 205.87 573.97 203.47 581.65 198.60 587.60 C 197.50 588.87 196.09 590.31 194.25 590.06 C 192.84 588.58 191.84 586.80 190.63 585.19 C 190.03 580.56 189.85 575.60 186.87 571.74 C 184.48 572.50 182.20 573.57 180.08 574.91 C 179.16 582.71 180.16 591.40 185.43 597.59 C 187.97 599.83 191.44 600.23 194.48 601.47 C 197.11 602.54 200.33 602.31 202.39 600.20 C 206.68 596.17 211.16 592.09 213.95 586.82 C 215.23 584.18 217.10 581.89 218.23 579.18 C 218.99 578.97 220.52 578.55 221.28 578.35 C 223.16 580.75 224.80 583.33 226.49 585.87 C 226.83 589.50 225.75 593.41 227.12 596.87 C 229.79 597.88 233.75 598.32 235.80 595.89 C 238.79 589.82 237.55 582.67 235.58 576.48 C 234.03 570.90 228.60 566.71 222.84 566.41 C 219.05 565.96 214.26 565.19 211.58 568.62 Z" />
<path fill="#000000" opacity="1.00" d=" M 564.89 234.93 C 566.08 233.56 568.32 230.69 570.07 232.90 C 571.82 234.36 573.06 236.55 573.00 238.88 C 573.24 243.15 572.87 247.45 571.61 251.55 C 571.42 255.97 570.68 261.21 566.77 263.93 C 565.02 265.36 563.04 264.08 561.52 263.03 C 560.59 253.62 560.34 243.51 564.89 234.93 Z" />
<path fill="#000000" opacity="1.00" d=" M 434.42 250.00 C 436.10 249.48 436.92 251.30 437.55 252.52 C 438.78 255.09 438.34 257.94 437.55 260.56 C 436.99 260.52 435.88 260.44 435.32 260.39 C 433.53 257.20 432.82 253.44 434.42 250.00 Z" />
<path fill="#000000" opacity="1.00" d=" M 677.67 292.44 C 680.54 285.85 685.83 280.55 692.09 277.09 C 693.51 278.28 694.90 279.52 696.23 280.82 C 694.74 291.24 688.54 300.58 680.50 307.19 C 678.11 307.26 676.30 305.79 674.94 303.99 C 674.62 299.91 675.26 295.84 677.67 292.44 Z" />
<path fill="#000000" opacity="1.00" d=" M 499.38 293.38 C 504.81 292.51 510.37 293.46 515.82 292.58 C 524.55 292.54 533.31 292.15 542.01 292.98 C 556.25 292.93 570.57 294.67 584.10 299.17 C 587.34 299.55 590.23 301.17 593.39 301.84 C 600.32 303.09 607.02 305.40 613.43 308.27 C 631.92 315.04 649.45 324.20 666.13 334.60 C 678.75 342.83 690.44 352.47 701.34 362.86 C 701.72 363.21 702.47 363.90 702.85 364.25 C 712.42 373.71 721.95 383.37 729.59 394.50 C 730.05 399.03 726.73 402.45 724.01 405.60 C 716.44 414.18 709.23 423.34 700.10 430.33 C 693.94 425.55 689.32 419.20 684.01 413.58 C 678.70 407.63 673.22 401.78 668.44 395.39 C 667.34 394.07 668.54 392.44 668.88 391.08 C 672.72 382.25 676.73 373.48 680.47 364.61 C 681.43 361.68 683.00 358.45 681.74 355.37 C 678.53 352.71 674.35 351.53 671.06 348.93 C 652.17 338.18 632.66 328.55 613.21 318.86 C 605.83 314.97 598.18 311.66 590.55 308.31 C 585.85 311.71 583.74 317.33 580.89 322.16 C 576.64 329.13 573.32 336.62 568.70 343.36 C 564.28 344.07 559.84 343.03 555.44 342.67 C 553.07 342.47 550.70 342.19 548.40 341.61 C 543.11 341.38 537.85 340.80 532.59 340.32 C 525.12 339.52 517.45 340.64 510.11 338.68 C 508.49 338.28 507.34 337.00 506.12 335.96 C 506.02 334.24 505.67 332.54 504.96 330.98 C 503.15 326.92 502.06 322.59 500.21 318.56 C 497.64 312.49 496.62 305.43 491.85 300.54 C 487.73 300.41 484.07 302.75 480.11 303.49 C 463.83 308.14 447.56 313.08 431.55 318.74 C 425.03 320.94 418.42 322.88 411.83 324.89 C 404.95 327.56 397.31 329.13 391.54 333.98 C 393.75 341.54 396.24 349.03 398.67 356.53 C 400.61 361.45 401.68 366.69 401.91 371.97 C 401.31 375.15 398.24 377.00 395.98 379.00 C 381.81 389.17 369.40 401.48 356.20 412.81 C 347.46 409.08 338.96 404.84 330.35 400.84 C 326.42 399.15 322.54 397.02 318.18 396.80 C 310.16 408.43 304.15 421.31 297.60 433.80 C 292.06 444.29 286.80 454.91 281.49 465.52 C 277.46 473.35 273.73 481.36 270.72 489.66 C 272.43 491.19 274.24 492.63 276.27 493.72 C 286.19 498.90 295.93 504.42 306.03 509.25 C 305.33 516.60 304.78 523.99 304.36 531.38 C 303.81 534.41 304.16 537.53 303.67 540.58 C 302.42 550.51 303.00 560.73 300.54 570.47 C 297.60 574.51 291.82 574.13 287.86 576.75 C 279.82 578.70 272.10 582.11 264.59 585.61 C 261.24 589.51 264.41 594.26 265.50 598.41 C 269.98 610.98 272.88 623.99 277.28 636.58 C 278.75 643.09 282.19 648.94 283.69 655.43 C 284.73 657.69 285.28 660.13 286.24 662.44 C 288.53 670.55 291.58 678.42 294.05 686.48 C 299.25 685.70 304.87 685.86 309.54 683.12 C 310.59 683.02 311.65 682.94 312.72 682.86 C 315.04 681.21 318.09 681.71 320.46 680.19 C 325.31 678.78 330.30 677.98 335.10 676.38 C 336.86 678.14 338.70 679.83 340.23 681.81 C 346.76 690.76 354.05 699.16 359.73 708.71 C 350.65 716.81 339.51 722.02 329.41 728.63 C 326.80 729.37 324.48 730.80 321.98 731.82 C 319.48 732.82 317.88 730.08 316.13 728.86 C 310.34 722.81 305.71 715.78 300.87 708.98 C 295.09 701.30 290.84 692.65 285.71 684.56 C 281.94 676.53 278.29 668.43 274.44 660.44 C 273.57 658.67 272.61 656.92 272.21 654.98 C 271.52 650.93 268.80 647.60 268.25 643.49 C 267.22 641.20 266.75 638.71 265.72 636.42 C 263.92 629.81 262.23 623.14 260.32 616.54 C 258.05 609.13 257.32 601.39 256.16 593.76 C 254.65 584.19 254.18 574.50 253.92 564.83 C 252.74 554.77 254.42 544.69 254.63 534.62 C 254.97 532.59 255.01 530.54 255.14 528.50 C 255.91 525.53 255.95 522.45 256.32 519.43 C 257.46 510.96 259.10 502.56 261.28 494.29 C 262.46 490.11 262.80 485.64 264.77 481.71 C 265.50 480.51 265.48 479.07 265.66 477.73 C 265.96 477.39 266.54 476.71 266.83 476.38 C 266.92 474.30 267.24 472.25 268.26 470.42 C 268.87 466.73 270.69 463.42 272.11 460.01 C 278.92 442.55 288.23 426.19 298.23 410.40 C 316.19 385.63 337.47 363.23 361.42 344.18 C 369.04 339.02 376.26 333.21 384.45 328.93 C 392.09 323.69 400.66 320.08 408.84 315.82 C 418.83 311.45 428.95 307.27 439.42 304.24 C 442.33 302.94 445.56 302.74 448.45 301.37 C 460.04 298.69 471.54 295.36 483.43 294.32 C 488.73 293.81 494.05 293.49 499.38 293.38 Z" />
<path fill="#000000" opacity="1.00" d=" M 507.57 431.60 C 516.52 430.90 525.49 430.75 534.44 431.60 C 535.49 431.79 536.54 431.96 537.61 432.13 L 538.43 432.45 C 550.27 432.87 561.58 437.10 572.53 441.28 C 588.74 448.71 603.26 459.68 615.28 472.82 C 621.57 479.32 627.14 486.53 631.77 494.31 C 633.12 496.46 633.85 499.73 631.65 501.59 C 615.64 517.98 598.27 532.94 580.80 547.73 C 571.47 555.74 562.14 563.75 552.91 571.86 C 538.65 582.95 524.64 594.37 510.43 605.53 C 496.55 615.90 482.96 626.68 468.85 636.74 C 466.02 638.93 462.97 640.83 460.34 643.27 C 459.91 643.38 459.06 643.60 458.64 643.71 C 452.92 648.60 446.33 652.36 439.72 655.91 C 428.75 647.87 419.54 637.46 412.44 625.88 C 406.10 614.63 399.64 603.07 397.05 590.30 C 394.70 584.30 394.54 577.72 393.64 571.39 C 391.81 554.78 394.33 538.06 397.97 521.86 C 402.62 508.04 408.59 494.31 418.13 483.11 C 425.68 473.78 434.14 465.18 443.17 457.28 C 449.75 451.44 457.46 447.01 465.51 443.54 C 473.99 439.81 482.52 436.04 491.53 433.81 C 496.78 432.44 502.27 432.71 507.57 431.60 Z" />
<path fill="#000000" opacity="1.00" d=" M 773.52 498.42 C 774.26 496.29 777.74 496.32 778.49 498.44 C 780.05 501.82 779.87 505.70 781.24 509.16 C 783.96 526.15 784.59 543.39 784.53 560.57 L 784.01 561.37 C 784.32 568.62 783.45 575.82 783.45 583.07 C 782.88 591.94 782.42 600.93 779.77 609.48 C 778.99 613.33 778.86 617.28 778.05 621.12 C 776.77 625.34 775.48 629.55 773.92 633.68 C 771.10 642.40 768.57 651.25 764.45 659.48 C 759.32 672.38 752.91 684.76 745.80 696.68 C 743.22 701.05 739.90 704.96 737.74 709.58 C 735.99 711.19 734.67 713.18 733.37 715.16 C 718.46 735.11 700.51 752.58 681.21 768.26 C 667.01 778.73 652.18 788.44 636.33 796.24 C 624.98 801.72 613.25 806.33 601.43 810.68 C 591.01 813.26 580.78 816.61 570.13 818.14 C 565.60 819.10 560.98 819.47 556.45 820.38 C 548.50 821.10 540.62 822.62 532.61 822.62 C 528.11 823.36 523.53 822.86 519.00 822.99 C 511.65 822.85 504.26 823.38 496.93 822.53 C 491.10 822.11 485.38 820.82 479.55 820.38 C 473.05 818.89 466.30 818.51 459.97 816.32 C 455.29 815.87 450.83 814.35 446.37 812.95 C 439.11 811.41 432.24 808.51 425.31 805.93 C 414.62 801.89 404.31 796.99 394.13 791.82 C 389.04 789.18 383.74 786.92 378.93 783.80 C 379.93 780.27 384.76 779.03 388.10 779.02 C 397.70 782.13 406.26 787.70 415.41 791.85 C 418.37 793.59 421.63 794.75 424.75 796.20 C 433.87 800.44 442.66 805.49 452.18 808.81 C 456.66 803.00 459.38 796.07 463.33 789.92 C 466.22 784.52 468.77 778.98 471.48 773.49 C 482.48 773.85 493.43 775.13 504.42 775.63 C 513.54 776.40 522.75 776.64 531.76 778.38 C 535.25 778.80 535.78 782.58 536.87 785.25 C 539.23 792.67 542.11 799.88 544.56 807.27 C 545.56 810.60 547.26 813.68 549.71 816.17 C 558.00 815.49 565.59 811.75 573.53 809.59 C 577.56 808.63 581.42 807.09 585.51 806.39 C 590.13 804.62 594.97 803.52 599.61 801.79 C 603.60 800.51 607.34 798.42 611.52 797.75 C 623.63 793.29 635.98 789.49 648.19 785.28 C 649.91 778.00 645.74 771.43 644.42 764.49 C 642.91 757.09 639.58 749.95 639.85 742.27 C 649.67 734.68 659.86 727.51 668.84 718.89 C 674.35 714.00 679.64 708.84 685.38 704.22 C 692.22 705.17 697.63 710.24 703.88 712.88 C 709.89 715.24 715.49 718.63 721.83 720.15 C 723.89 718.37 726.09 716.59 727.29 714.08 C 735.78 699.36 743.71 684.31 751.41 669.16 C 753.24 665.18 756.00 661.65 757.35 657.45 C 762.16 647.79 766.52 637.90 771.16 628.16 C 769.87 626.70 768.60 625.18 766.95 624.13 C 757.37 618.20 747.16 613.43 737.21 608.22 C 735.38 607.62 736.13 605.43 736.00 604.04 C 736.74 596.23 736.79 588.36 737.66 580.56 C 738.06 576.52 738.52 572.48 738.52 568.42 L 738.93 567.62 C 739.51 561.96 739.50 556.28 739.59 550.61 C 739.92 548.83 740.01 547.02 740.18 545.23 C 742.90 544.12 745.74 543.36 748.47 542.30 C 752.27 541.41 755.79 539.64 759.48 538.39 C 766.22 535.60 773.78 533.91 779.21 528.74 C 778.24 523.68 776.02 518.87 775.86 513.68 C 775.56 513.34 774.97 512.68 774.67 512.35 C 774.61 507.62 770.83 503.02 773.52 498.42 Z" />
<path fill="#000000" opacity="1.00" d=" M 601.98 647.04 C 609.87 641.01 618.07 635.33 626.81 630.60 C 614.83 646.92 599.50 660.97 581.53 670.45 C 572.74 674.76 563.81 678.90 554.57 682.19 C 570.08 670.08 586.18 658.76 601.98 647.04 Z" />
<path fill="#000000" opacity="1.00" d=" M 227.83 639.49 C 230.85 639.96 234.24 640.11 236.60 642.32 C 238.45 644.26 238.98 646.99 239.44 649.55 C 239.15 657.88 230.41 661.40 223.45 662.74 C 218.15 664.97 212.01 664.23 206.71 662.40 C 203.24 659.43 202.31 653.83 205.18 650.14 C 207.43 646.04 211.84 644.16 215.46 641.56 C 219.49 640.40 223.76 640.50 227.83 639.49 Z" />
<path fill="#000000" opacity="1.00" d=" M 200.80 749.65 C 203.19 746.44 205.47 743.06 208.74 740.67 C 210.12 742.38 212.00 744.59 210.54 746.89 C 206.05 756.00 200.30 764.40 195.54 773.38 C 191.83 781.00 187.31 788.99 188.62 797.81 C 189.26 801.83 190.07 807.92 195.07 808.53 C 205.88 810.56 216.60 806.63 226.19 801.99 C 232.60 799.61 238.59 796.25 245.13 794.22 C 250.72 796.90 254.62 801.91 258.66 806.44 C 260.09 807.88 260.89 809.75 261.32 811.72 C 246.78 817.10 231.96 821.71 217.05 825.94 C 211.50 826.80 206.43 829.66 200.82 830.16 C 200.28 830.49 199.19 831.16 198.65 831.49 C 198.13 831.51 197.11 831.54 196.60 831.56 C 182.60 834.54 168.59 838.49 154.18 838.56 C 153.42 837.72 152.63 836.91 151.93 836.04 C 152.35 835.19 152.79 834.35 153.26 833.53 C 154.67 826.93 158.20 821.07 161.00 815.00 C 167.07 802.11 174.79 790.12 181.90 777.81 C 184.36 775.08 185.99 771.79 187.79 768.63 C 191.93 762.17 196.31 755.87 200.80 749.65 Z" />
<path fill="#000000" opacity="1.00" d=" M 222.15 763.09 C 227.74 766.95 231.06 773.25 234.33 779.04 C 229.92 781.45 225.25 783.32 220.75 785.57 C 216.12 787.58 211.72 790.19 206.76 791.33 C 209.65 780.94 214.85 771.06 222.15 763.09 Z" />
</g>
</svg>
