<?xml version="1.0" encoding="UTF-8" ?>
<!DOCTYPE svg PUBLIC "-//W3C//DTD SVG 1.1//EN" "http://www.w3.org/Graphics/SVG/1.1/DTD/svg11.dtd">
<svg width="780pt" height="723pt" viewBox="0 0 780 723" version="1.1" xmlns="http://www.w3.org/2000/svg">
<g id="#ffffffff">
</g>
<g id="#000000ff">
<path fill="#000000" opacity="1.00" d=" M 745.61 30.66 C 755.77 20.56 765.99 10.45 777.32 1.65 C 778.94 7.01 777.11 12.52 777.47 17.97 C 775.47 36.68 774.02 55.49 771.24 74.10 C 769.09 87.26 767.12 100.46 764.32 113.50 C 761.54 123.53 759.46 133.74 757.48 143.96 C 757.26 145.05 756.62 145.98 756.17 146.97 C 756.15 150.40 753.99 153.29 753.63 156.65 C 753.04 159.42 753.11 162.56 751.16 164.82 C 751.11 169.63 748.67 173.90 747.56 178.48 C 744.90 185.50 743.09 192.80 740.65 199.90 C 739.92 202.51 738.27 204.86 738.41 207.67 C 738.09 208.07 737.45 208.88 737.13 209.29 C 735.79 217.26 730.54 224.00 728.98 231.96 C 724.64 242.27 720.97 252.92 715.35 262.63 C 714.48 263.84 712.90 262.49 712.51 261.54 C 706.80 251.14 704.02 239.04 695.87 230.09 C 693.86 227.56 690.72 226.52 688.01 224.98 C 678.76 231.25 671.97 240.33 664.35 248.37 C 654.86 259.20 645.25 269.89 635.70 280.67 C 616.32 301.93 595.63 321.96 575.35 342.38 C 569.11 348.15 562.92 353.95 556.63 359.67 C 542.40 373.51 527.02 386.07 511.98 399.02 C 502.17 407.02 492.93 415.73 482.59 423.06 C 474.98 429.37 466.90 435.06 459.21 441.27 C 447.84 450.35 435.92 458.71 423.97 467.01 C 404.03 482.15 382.57 495.13 361.77 509.00 C 353.97 513.66 346.61 519.04 338.57 523.31 C 324.19 532.09 309.47 540.27 295.00 548.89 C 276.98 558.60 258.91 568.20 240.57 577.29 C 232.18 581.24 224.14 585.95 215.52 589.39 C 209.21 591.55 204.30 585.75 199.82 582.26 C 194.62 577.32 187.35 573.94 184.68 566.86 C 193.78 559.93 203.75 554.22 213.57 548.38 C 221.07 543.10 229.02 538.48 236.82 533.65 C 251.58 523.53 267.59 515.20 281.55 503.95 C 284.97 502.68 287.57 499.98 290.61 498.06 C 314.39 481.84 337.76 465.03 360.43 447.30 C 367.49 442.07 374.38 436.63 381.47 431.45 C 395.77 419.33 410.63 407.90 424.75 395.57 C 437.58 385.94 449.06 374.70 461.12 364.17 C 470.62 355.65 480.30 347.33 489.39 338.37 C 497.15 331.85 503.65 323.97 511.35 317.38 C 528.73 300.09 545.83 282.53 562.47 264.53 C 582.97 242.76 601.92 219.56 619.83 195.65 C 627.44 184.06 636.74 173.65 643.81 161.70 C 645.81 158.52 648.06 155.34 648.37 151.46 C 644.42 143.79 637.93 137.78 633.37 130.47 C 641.61 123.02 650.09 115.81 658.79 108.89 C 680.91 91.11 702.20 72.29 722.40 52.37 C 730.35 45.36 737.60 37.60 745.61 30.66 Z" />
<path fill="#000000" opacity="1.00" d=" M 321.03 39.98 C 343.26 37.71 365.63 38.70 387.94 38.50 C 395.31 38.30 402.65 38.88 409.99 39.43 C 422.56 39.70 435.06 41.81 447.10 45.38 C 452.25 46.95 457.54 47.95 462.79 49.13 C 463.18 49.48 463.97 50.20 464.36 50.55 C 465.64 50.52 466.92 50.50 468.21 50.48 C 468.60 50.86 469.39 51.62 469.78 52.00 C 470.52 52.02 472.01 52.07 472.75 52.09 C 473.72 52.64 474.67 53.34 475.82 53.47 C 480.84 54.36 485.36 56.87 490.30 57.99 C 484.51 60.93 477.11 58.71 471.81 62.85 C 470.32 63.74 470.41 65.40 470.70 66.89 C 473.48 68.03 475.95 69.76 478.17 71.79 C 475.90 83.48 470.45 94.25 468.01 105.90 C 467.61 108.82 470.52 110.64 472.50 112.22 C 474.98 112.02 476.66 110.23 478.25 108.50 C 481.77 96.88 487.48 86.06 491.14 74.48 C 492.51 69.39 493.77 63.46 490.77 58.69 C 497.81 60.88 504.33 64.43 511.41 66.43 C 514.12 67.74 516.76 69.18 519.51 70.41 C 526.24 74.56 533.67 77.40 540.41 81.52 C 562.41 94.16 583.42 108.71 601.90 126.16 C 608.01 131.69 613.89 137.47 619.80 143.21 C 622.95 146.01 625.53 149.35 628.48 152.35 C 628.79 154.52 626.99 156.25 626.10 158.08 C 615.79 173.60 604.91 188.91 591.97 202.36 C 584.83 196.38 579.10 188.98 572.34 182.61 C 565.32 175.26 557.66 168.60 550.57 161.33 C 536.99 149.90 522.26 139.77 506.51 131.55 C 500.44 127.80 494.04 124.65 487.90 121.03 C 482.91 118.76 477.61 117.24 472.52 115.23 C 466.71 114.33 461.61 111.01 455.77 110.12 C 446.64 107.36 437.68 103.84 428.13 102.76 C 421.25 100.41 413.93 100.37 406.84 99.18 C 384.35 96.54 361.55 96.03 339.07 98.97 C 321.98 101.43 304.86 104.29 288.29 109.20 C 286.15 110.17 283.74 110.19 281.50 110.86 C 270.24 113.87 260.45 120.59 249.46 124.31 C 249.04 124.69 248.21 125.45 247.79 125.83 C 245.50 126.21 243.35 127.13 241.69 128.78 C 239.11 129.10 237.36 131.17 235.09 132.20 C 224.02 137.83 213.91 145.06 203.68 152.06 C 192.39 160.29 181.89 169.56 171.99 179.42 C 158.63 192.08 147.29 206.70 136.72 221.71 C 125.47 239.43 115.59 258.06 107.64 277.50 C 107.27 281.74 104.86 285.46 103.84 289.56 C 102.25 295.68 99.19 301.38 98.34 307.68 C 94.55 318.91 93.86 330.93 91.69 342.55 C 88.97 366.09 89.65 389.88 91.60 413.45 C 92.95 419.61 92.50 426.08 94.78 432.05 C 94.74 437.54 97.30 442.54 97.84 447.98 C 99.68 455.25 102.50 462.26 104.64 469.46 C 106.23 475.35 109.15 480.75 111.25 486.47 C 114.65 496.17 120.02 505.00 124.61 514.16 C 128.28 520.78 131.94 527.55 136.74 533.41 C 141.20 541.87 147.88 548.92 153.45 556.66 C 171.64 578.39 193.00 597.48 216.75 612.97 C 229.52 621.34 243.12 628.37 256.94 634.82 C 264.53 637.53 271.68 641.36 279.44 643.57 C 285.73 645.97 292.48 646.80 298.80 649.13 C 307.53 652.12 316.70 653.31 325.76 654.88 C 360.12 659.98 395.33 658.89 429.45 652.41 C 436.75 650.59 444.05 648.65 451.21 646.40 C 455.22 645.72 459.11 644.42 462.87 642.87 C 476.69 637.98 490.15 632.07 503.01 625.03 C 514.05 619.37 524.16 612.20 534.43 605.30 C 543.13 599.15 550.99 591.94 559.08 585.02 C 566.13 578.74 572.19 571.49 578.88 564.84 C 586.17 556.72 592.71 547.96 599.59 539.52 C 604.67 529.93 611.58 521.40 616.27 511.56 C 621.93 499.89 628.29 488.49 632.47 476.17 C 635.59 469.53 637.61 462.49 639.79 455.52 C 639.77 452.82 640.80 450.35 641.76 447.90 C 642.58 441.97 645.00 436.44 646.16 430.58 C 647.04 426.85 647.52 423.03 648.36 419.29 C 648.78 414.22 648.13 409.11 648.94 404.07 C 649.07 391.71 648.96 379.35 648.99 367.00 C 648.05 358.35 648.71 349.64 648.48 340.96 C 647.96 333.23 646.47 325.61 644.50 318.13 C 643.06 312.70 642.45 307.06 640.49 301.77 C 642.13 298.77 644.67 296.44 646.90 293.89 C 660.18 279.51 672.39 264.14 686.35 250.39 C 686.93 250.47 688.08 250.63 688.66 250.70 C 693.66 259.75 696.35 269.81 699.78 279.46 C 699.95 281.89 700.89 284.12 701.76 286.36 C 702.89 294.46 705.84 302.15 707.41 310.16 C 708.85 317.75 710.69 325.29 711.52 332.98 C 713.06 341.90 712.58 351.00 713.46 360.00 C 713.61 384.86 713.71 409.78 710.64 434.49 C 709.06 445.67 705.67 456.48 703.29 467.50 C 702.80 468.91 702.05 470.21 701.44 471.57 C 701.46 472.26 701.50 473.65 701.52 474.34 C 699.38 476.40 700.55 479.78 698.60 482.00 C 698.58 482.66 698.54 483.97 698.52 484.63 C 698.17 485.05 697.48 485.87 697.14 486.28 C 694.75 497.10 689.42 507.05 685.54 517.38 C 679.50 530.47 673.10 543.43 665.79 555.86 C 661.16 562.86 657.44 570.46 652.10 576.99 C 647.78 583.59 643.11 590.01 637.86 595.91 C 618.76 619.05 597.09 640.23 572.61 657.64 C 565.64 663.15 557.72 667.26 550.45 672.35 C 540.02 678.00 529.92 684.29 519.04 689.07 C 507.09 694.78 494.68 699.42 482.40 704.35 C 481.90 704.41 480.89 704.54 480.38 704.60 C 479.81 704.92 478.68 705.56 478.11 705.88 C 476.60 705.98 475.09 706.16 473.69 706.73 C 466.14 709.33 458.60 712.13 450.70 713.46 C 437.38 717.47 423.39 718.61 409.56 719.65 C 395.73 720.47 381.86 720.80 368.01 721.51 C 358.05 721.11 347.95 722.45 338.13 720.40 C 328.02 719.86 317.93 718.80 307.95 717.00 C 298.86 714.55 289.48 713.27 280.50 710.37 C 277.63 709.29 274.79 708.03 271.74 707.60 C 266.07 706.78 261.19 703.49 255.58 702.49 C 247.07 699.10 238.38 696.10 230.22 691.89 C 221.76 687.77 213.02 684.22 205.00 679.25 C 199.35 675.60 193.09 672.95 187.65 668.97 C 179.91 663.49 171.85 658.48 164.20 652.88 C 153.04 643.59 141.57 634.58 131.55 624.04 C 119.48 612.51 108.24 600.03 98.36 586.57 C 84.53 568.97 73.27 549.52 63.47 529.43 C 59.54 521.93 56.10 514.17 52.93 506.33 C 51.93 501.21 48.38 497.03 47.60 491.87 C 47.04 489.24 45.92 486.77 45.28 484.17 C 48.57 485.76 49.79 489.31 51.95 491.98 C 54.61 494.55 58.22 495.93 61.73 496.92 C 66.20 497.11 70.68 497.03 75.16 496.96 C 82.39 496.82 88.34 492.07 93.64 487.66 C 96.54 484.02 99.19 479.94 100.51 475.45 C 100.48 471.04 100.74 466.59 99.80 462.25 C 98.21 459.46 96.76 456.57 94.88 453.97 C 92.44 451.44 89.25 449.57 85.87 448.62 C 80.49 448.09 75.12 448.91 69.77 449.32 C 66.18 449.58 62.66 450.58 59.47 452.25 C 54.97 454.67 49.71 456.54 47.07 461.26 C 45.43 464.45 44.14 467.91 43.67 471.49 C 43.94 473.34 44.04 475.21 43.96 477.10 C 42.04 475.37 41.55 472.79 40.61 470.51 C 35.74 450.96 32.03 431.13 30.19 411.07 C 28.65 402.85 30.21 394.43 29.09 386.17 C 28.91 382.05 28.89 377.93 29.12 373.82 C 30.16 365.89 28.73 357.83 30.08 349.93 C 30.48 347.50 30.53 345.03 30.61 342.58 C 31.73 336.69 31.48 330.56 33.43 324.84 C 34.50 318.73 34.67 312.40 36.78 306.51 C 38.51 296.99 41.01 287.58 44.36 278.49 C 45.70 273.43 47.42 268.48 49.04 263.51 C 50.75 256.63 54.69 250.58 56.86 243.86 C 61.69 232.63 67.20 221.66 73.23 211.02 C 82.52 194.34 92.99 178.21 105.49 163.73 C 104.31 172.38 111.19 179.75 110.28 188.30 C 105.23 186.08 100.96 181.62 95.11 181.48 C 91.82 180.95 90.25 185.40 92.06 187.70 C 93.75 190.03 95.68 192.20 97.96 193.99 C 104.80 199.56 111.31 205.58 118.56 210.62 C 122.64 212.86 125.74 216.65 130.47 217.64 C 132.87 219.34 136.23 218.32 137.29 215.58 C 139.56 211.99 135.79 208.64 132.98 206.90 C 130.21 204.33 126.36 202.70 124.63 199.19 C 132.61 196.87 140.99 198.59 149.15 197.87 C 151.32 197.26 152.60 195.25 154.03 193.66 C 154.04 193.04 154.06 191.78 154.07 191.16 C 149.56 187.10 143.04 187.13 137.46 185.62 C 131.99 184.95 125.69 185.53 121.35 181.58 C 118.35 175.70 115.22 169.71 113.84 163.21 C 112.92 162.21 111.98 161.22 111.04 160.23 C 109.55 160.84 108.08 161.49 106.60 162.13 C 110.78 156.48 115.50 151.24 120.44 146.26 C 127.94 137.86 136.09 130.04 144.66 122.74 C 161.52 107.07 180.88 94.40 200.52 82.53 C 201.46 81.42 203.26 82.31 202.92 83.74 C 203.17 87.50 202.66 91.75 205.23 94.87 C 207.52 97.84 207.58 101.99 210.29 104.67 C 213.37 108.04 214.00 112.82 216.64 116.47 C 219.87 120.82 222.63 125.50 225.97 129.78 C 227.95 131.40 230.41 131.97 232.76 130.73 C 233.09 130.21 233.73 129.18 234.06 128.66 C 232.66 123.14 231.08 117.61 228.52 112.50 C 227.63 110.87 227.52 109.01 227.31 107.21 C 231.51 103.49 237.62 101.59 239.85 95.97 C 237.12 92.89 232.11 92.39 228.79 94.81 C 226.72 96.17 224.18 95.99 221.82 96.06 C 220.85 93.90 219.51 91.96 218.13 90.06 C 217.18 87.75 218.85 85.86 220.30 84.31 C 224.04 83.50 226.87 80.67 229.17 77.78 C 228.96 75.86 228.64 73.96 228.23 72.08 C 226.03 71.80 223.83 71.54 221.62 71.47 C 231.24 66.94 241.09 62.91 250.96 58.98 C 254.72 58.04 257.88 55.35 261.88 55.27 C 264.63 54.03 267.72 53.64 270.33 52.08 C 271.38 52.01 272.44 51.95 273.50 51.89 C 280.57 48.60 288.35 47.35 295.83 45.33 C 304.14 43.11 312.70 42.02 321.03 39.98 M 336.31 45.03 C 337.02 46.98 337.63 49.04 339.13 50.57 C 345.23 50.36 352.38 49.80 356.87 54.83 C 357.02 55.56 357.33 57.00 357.48 57.72 C 356.77 62.69 353.43 66.67 350.49 70.53 C 347.13 74.99 345.49 80.58 341.39 84.49 C 339.92 87.19 339.03 90.17 338.02 93.05 C 339.78 94.12 341.72 94.98 343.83 94.98 C 353.11 96.20 362.53 95.13 371.67 93.36 C 372.40 92.18 373.07 90.97 373.70 89.74 C 373.05 88.53 372.42 87.30 371.82 86.08 C 367.45 83.81 362.24 84.68 357.78 82.55 C 358.91 77.17 363.09 73.35 365.35 68.50 C 367.38 63.32 370.74 58.24 369.88 52.40 C 368.95 45.45 362.83 39.11 355.50 39.65 C 348.98 38.60 340.21 38.81 336.31 45.03 M 416.35 42.17 C 411.95 43.17 408.21 46.16 405.33 49.52 C 403.88 53.66 400.23 56.71 399.72 61.23 C 398.87 66.77 396.72 72.32 397.82 77.98 C 398.61 82.03 398.37 86.57 400.98 90.04 C 403.98 94.86 409.09 99.28 415.15 98.52 C 421.68 98.18 426.22 92.82 430.18 88.23 C 437.20 79.34 436.67 67.40 436.42 56.71 C 435.60 51.19 431.31 47.17 427.23 43.78 C 424.22 41.19 419.98 41.95 416.35 42.17 M 273.60 59.16 C 273.28 62.42 273.67 65.69 273.41 68.95 C 272.11 80.30 273.90 91.67 273.48 103.04 C 273.02 107.04 277.40 108.37 280.18 109.89 C 285.07 106.60 282.66 100.06 284.39 95.31 C 285.59 93.26 287.53 91.82 289.41 90.44 C 292.24 90.75 295.77 89.54 297.84 92.13 C 300.67 95.04 303.79 97.66 307.13 99.98 C 308.37 100.01 309.61 100.04 310.86 100.08 C 311.92 98.79 312.82 97.39 313.68 95.96 C 312.88 92.84 311.92 89.67 309.75 87.20 C 306.46 82.72 304.61 77.41 301.42 72.88 C 296.46 66.08 292.61 58.45 286.95 52.17 C 285.88 50.57 283.94 50.09 282.13 50.40 C 277.30 50.35 274.93 55.25 273.60 59.16 M 534.51 87.77 C 531.78 89.14 529.58 91.33 527.21 93.21 C 522.24 99.28 517.47 105.81 515.36 113.49 C 514.42 117.26 511.55 120.85 512.83 124.88 C 513.72 128.36 513.77 133.02 517.58 134.73 C 521.83 136.92 526.06 139.95 531.02 140.03 C 536.85 138.75 541.50 134.69 545.32 130.29 C 551.08 124.68 554.82 117.36 557.52 109.88 C 558.31 103.40 559.34 94.89 553.13 90.63 C 548.26 85.85 540.65 86.05 534.51 87.77 M 161.83 113.02 C 162.91 118.93 168.32 122.60 171.00 127.72 C 173.56 132.77 178.44 136.03 181.35 140.82 C 182.73 144.32 184.44 148.12 183.12 151.92 C 181.61 154.75 178.33 155.59 175.35 155.64 C 163.51 147.73 155.75 135.23 144.07 127.17 C 142.78 128.29 141.54 129.48 140.39 130.76 C 139.60 138.08 145.89 142.82 149.87 148.03 C 152.70 152.55 156.79 156.05 160.04 160.24 C 161.74 162.63 164.67 163.56 167.19 164.80 C 171.74 166.89 176.99 167.59 181.76 165.87 C 184.47 164.72 186.50 162.51 188.89 160.87 C 191.60 158.99 194.08 156.60 195.45 153.55 C 196.44 150.94 195.97 148.08 195.74 145.38 C 195.06 139.63 191.13 135.26 188.66 130.26 C 181.76 122.89 177.32 113.12 168.61 107.50 C 165.28 106.84 161.32 109.32 161.83 113.02 M 65.26 227.94 C 63.24 231.88 63.13 237.36 66.59 240.55 C 73.03 247.00 79.15 253.86 86.45 259.38 C 80.26 260.09 74.19 258.29 68.01 258.43 C 63.19 258.27 57.91 256.98 53.32 258.91 C 50.87 262.04 48.63 265.86 48.91 269.99 C 59.14 274.86 69.16 280.24 78.76 286.23 C 85.28 288.79 92.14 290.40 98.60 293.16 C 99.11 292.66 100.12 291.67 100.62 291.17 C 101.05 286.61 97.69 283.07 94.04 280.95 C 88.45 277.70 82.14 275.62 77.08 271.50 C 85.39 272.21 93.74 271.97 102.07 272.01 C 104.37 272.33 106.70 270.43 106.53 268.04 C 106.85 264.43 103.82 261.88 101.73 259.36 C 99.06 256.68 97.58 252.81 94.08 251.02 C 91.24 249.60 89.37 247.00 87.89 244.29 C 90.67 246.05 94.05 246.09 97.09 247.11 C 103.58 249.56 110.26 252.10 117.29 252.12 C 117.55 249.55 117.57 246.97 117.36 244.40 C 109.80 239.19 100.78 237.19 92.56 233.35 C 86.26 230.45 79.61 228.20 72.68 227.52 C 70.26 227.24 67.34 226.19 65.26 227.94 M 37.20 314.41 C 35.78 316.85 35.89 321.48 38.98 322.83 C 43.55 326.44 50.59 324.46 54.41 329.30 C 56.13 333.59 52.99 337.73 51.65 341.69 C 47.90 343.75 43.48 343.03 39.51 342.12 C 37.67 342.36 35.96 343.17 34.17 343.63 C 31.98 345.22 29.63 348.49 32.09 350.93 C 36.08 353.55 41.10 353.66 45.67 354.51 C 45.97 354.86 46.56 355.55 46.85 355.90 C 59.27 356.81 71.54 359.60 84.02 359.49 C 87.57 359.63 87.44 354.84 86.48 352.49 C 85.32 348.63 80.82 348.62 77.53 348.42 C 76.52 348.13 75.50 347.85 74.49 347.58 C 71.73 347.48 68.61 347.26 66.52 345.23 C 65.24 342.28 66.73 339.08 66.51 336.01 C 66.76 334.01 66.36 331.33 67.88 329.84 C 71.57 328.39 75.59 329.84 79.43 329.61 C 83.60 330.21 88.78 330.99 91.74 327.19 C 91.70 322.25 86.74 319.51 82.49 318.53 C 76.76 318.91 71.73 315.18 66.01 315.50 C 62.19 315.89 58.78 313.60 54.98 313.98 C 49.08 314.15 42.99 313.47 37.20 314.41 M 64.26 387.20 C 59.02 391.48 55.37 397.44 52.53 403.48 C 50.21 406.17 48.72 410.03 44.88 410.85 C 43.55 409.15 42.34 407.37 41.08 405.63 C 40.47 401.01 40.47 395.88 37.16 392.21 C 35.04 393.09 32.94 394.00 30.86 394.96 C 29.46 399.75 30.40 404.73 31.41 409.49 C 32.81 413.90 35.11 419.08 40.04 420.33 C 43.96 421.28 48.51 424.29 52.23 421.23 C 57.34 416.66 62.54 411.78 65.44 405.44 C 66.59 403.57 67.98 401.84 68.61 399.70 C 69.67 399.42 70.74 399.15 71.80 398.88 C 73.63 401.30 75.45 403.75 76.86 406.45 C 77.28 410.15 76.64 413.93 77.41 417.62 C 80.20 417.83 83.62 418.91 85.95 416.86 C 88.51 412.86 88.27 407.73 87.65 403.21 C 86.72 399.01 86.00 394.35 82.71 391.26 C 78.07 386.44 70.46 385.78 64.26 387.20 Z" />
<path fill="#000000" opacity="1.00" d=" M 417.44 53.29 C 420.00 51.25 422.26 54.89 423.12 56.97 C 424.06 61.77 423.52 66.76 422.30 71.47 C 421.75 75.84 421.55 80.96 417.90 84.02 C 416.22 85.50 413.15 85.40 412.19 83.21 C 410.78 74.43 411.12 65.11 414.63 56.84 C 415.14 55.38 416.29 54.28 417.44 53.29 Z" />
<path fill="#000000" opacity="1.00" d=" M 284.54 71.14 C 284.93 70.89 285.70 70.39 286.08 70.13 C 288.74 73.02 289.87 77.56 287.74 81.07 C 285.46 81.73 285.08 79.00 284.39 77.49 C 283.51 75.45 284.30 73.23 284.54 71.14 Z" />
<path fill="#000000" opacity="1.00" d=" M 527.80 113.58 C 530.93 106.89 536.00 100.65 542.94 97.73 C 543.70 98.42 544.48 99.11 545.27 99.79 C 545.63 100.26 546.34 101.19 546.70 101.66 C 545.08 111.92 538.98 121.08 531.08 127.65 C 529.07 127.54 526.89 127.04 525.95 125.05 C 524.67 121.19 525.61 116.94 527.80 113.58 Z" />
<path fill="#000000" opacity="1.00" d=" M 341.45 114.26 C 358.94 113.40 376.49 112.30 393.99 113.51 C 407.69 113.56 421.63 115.23 434.52 119.78 C 436.84 119.99 439.07 120.64 441.17 121.65 C 444.23 122.60 447.44 122.97 450.58 123.65 C 453.00 125.25 456.05 125.19 458.61 126.50 C 464.91 129.31 471.42 131.60 477.80 134.22 C 497.38 143.46 516.77 153.60 533.54 167.43 C 543.56 175.31 553.01 183.96 561.75 193.24 C 568.33 200.06 574.72 207.10 580.08 214.93 C 580.31 217.99 579.11 220.82 577.07 223.06 C 568.78 232.71 560.69 242.71 550.83 250.82 C 544.83 246.65 540.61 240.56 535.64 235.32 C 530.06 229.14 524.43 222.98 519.28 216.44 C 517.81 214.98 518.87 213.05 519.44 211.46 C 523.27 202.64 527.27 193.88 531.01 185.01 C 531.82 182.20 533.52 179.18 532.36 176.24 C 530.83 174.08 528.02 173.50 525.89 172.14 C 515.07 165.22 503.43 159.71 492.15 153.59 C 475.13 145.25 458.46 136.13 440.95 128.81 C 438.47 130.49 436.85 133.04 435.33 135.55 C 431.07 143.33 426.52 150.94 422.48 158.84 C 420.75 160.87 419.79 164.51 416.55 164.26 C 406.59 163.43 396.74 161.78 386.76 161.18 C 378.23 159.77 369.46 161.37 361.02 159.28 C 359.37 158.88 357.87 158.00 356.88 156.60 C 355.05 149.21 351.80 142.23 349.21 135.07 C 347.69 130.20 346.06 125.08 342.57 121.22 C 337.81 120.57 333.66 124.04 328.95 124.27 C 325.98 125.91 322.55 125.99 319.43 127.17 C 314.95 128.63 310.49 130.18 305.87 131.14 C 302.42 132.38 298.99 133.70 295.44 134.66 C 291.62 135.67 288.12 137.74 284.16 138.24 C 271.41 143.49 257.48 145.77 245.14 152.16 C 243.95 152.84 242.52 153.68 242.27 155.16 C 245.40 167.59 251.31 179.34 252.62 192.21 C 251.60 195.62 248.63 197.79 245.96 199.90 C 232.94 209.41 221.16 220.46 209.22 231.27 C 208.49 231.90 207.76 232.54 207.03 233.19 C 196.54 229.40 186.86 223.71 176.55 219.46 C 174.11 218.45 171.58 217.12 168.85 217.52 C 166.60 219.18 165.66 221.95 164.20 224.23 C 156.60 236.94 150.33 250.37 143.34 263.42 C 135.82 278.91 127.17 293.92 121.24 310.13 C 125.32 314.26 130.95 316.08 135.81 319.03 C 142.65 322.76 149.56 326.37 156.57 329.78 C 155.69 333.32 156.29 336.99 155.66 340.57 C 154.86 351.18 154.01 361.79 153.38 372.42 C 152.53 378.55 152.87 384.88 151.08 390.86 C 150.64 392.02 149.56 392.78 148.48 393.28 C 137.90 397.42 126.86 400.30 116.65 405.40 C 114.18 406.33 113.31 408.97 113.43 411.39 C 116.13 418.61 118.10 426.08 120.79 433.30 C 121.35 434.85 121.51 436.50 121.61 438.14 C 121.94 438.66 122.59 439.71 122.91 440.23 C 123.66 446.91 126.98 453.01 128.41 459.56 C 130.77 466.57 133.91 473.32 135.72 480.49 C 138.87 489.28 141.52 498.27 144.70 507.07 C 149.27 506.12 154.14 506.41 158.47 504.40 C 160.67 503.16 163.49 503.81 165.49 502.10 C 166.59 502.02 167.69 501.94 168.79 501.88 C 173.95 498.97 180.18 499.03 185.65 496.90 C 188.84 499.87 191.63 503.22 194.05 506.84 C 199.71 514.11 205.61 521.27 210.14 529.33 C 200.98 537.39 189.80 542.62 179.69 549.29 C 176.34 549.65 173.76 553.06 170.32 552.37 C 165.03 548.79 161.56 543.31 157.67 538.39 C 152.73 531.25 147.30 524.41 143.19 516.73 C 140.76 512.44 138.07 508.32 135.63 504.04 C 131.76 495.10 127.44 486.36 123.33 477.53 C 121.96 471.27 118.36 465.71 117.40 459.36 C 117.08 458.79 116.44 457.65 116.11 457.08 C 116.24 454.17 114.45 451.75 113.98 448.96 C 112.11 440.24 108.74 431.85 107.94 422.91 C 105.81 410.41 104.59 397.76 104.41 385.08 C 103.36 378.38 104.48 371.66 104.53 364.95 C 105.54 348.65 107.19 332.31 111.38 316.47 C 112.40 312.39 113.31 308.29 114.22 304.18 C 115.44 302.48 115.95 300.48 116.34 298.46 C 117.26 296.92 117.66 295.22 117.61 293.45 C 125.38 271.23 136.19 249.98 149.24 230.34 C 164.21 209.33 182.00 190.43 201.34 173.39 C 206.31 169.31 211.08 164.94 216.51 161.48 C 222.61 157.46 228.20 152.47 235.02 149.71 C 235.27 149.35 235.76 148.62 236.00 148.26 C 238.24 147.53 240.19 146.21 242.17 144.98 C 254.67 138.38 267.48 132.29 280.86 127.66 C 285.78 126.47 290.32 123.72 295.41 123.39 C 299.10 121.14 303.53 121.01 307.59 119.82 C 318.67 116.92 329.97 114.71 341.45 114.26 Z" />
<path fill="#000000" opacity="1.00" d=" M 352.15 252.93 C 376.02 249.55 400.98 252.18 423.12 261.95 C 442.77 270.63 459.43 285.02 473.01 301.47 C 476.47 305.98 479.92 310.55 482.67 315.55 C 483.82 317.53 484.03 320.46 482.17 322.10 C 472.47 332.10 462.05 341.36 451.79 350.77 C 435.21 364.84 418.70 379.00 402.31 393.30 C 394.45 399.04 387.18 405.54 379.34 411.31 C 363.83 424.27 347.42 436.08 331.43 448.44 C 317.95 458.08 304.99 468.57 290.32 476.40 C 279.53 468.73 270.65 458.54 263.56 447.42 C 258.52 439.13 254.29 430.38 250.50 421.46 C 249.66 419.23 249.50 416.76 248.15 414.74 C 248.38 411.98 246.99 409.62 246.21 407.09 C 244.42 395.19 242.59 383.10 243.97 371.05 C 244.27 362.11 246.35 353.38 247.86 344.61 C 250.30 335.76 254.07 327.37 258.15 319.17 C 259.46 316.55 261.42 314.28 262.37 311.48 C 266.48 306.87 269.73 301.54 274.10 297.14 C 283.41 287.07 293.01 276.92 304.79 269.70 C 313.63 264.71 323.04 260.76 332.56 257.26 C 338.82 254.80 345.42 253.23 352.15 252.93 Z" />
<path fill="#000000" opacity="1.00" d=" M 625.04 317.42 C 625.78 317.42 627.26 317.42 628.00 317.42 C 629.26 319.25 629.90 321.39 630.42 323.54 C 630.26 325.70 631.11 327.66 631.81 329.66 C 632.79 337.19 633.92 344.73 634.20 352.33 C 634.77 363.18 635.61 374.08 634.51 384.93 C 634.81 390.98 633.84 396.97 633.98 403.02 C 633.32 411.46 633.25 420.09 630.66 428.22 C 630.27 429.98 629.99 431.77 629.63 433.55 C 629.40 442.21 625.55 450.09 623.11 458.25 C 620.80 465.74 618.33 473.19 614.82 480.21 C 609.84 492.90 603.49 505.01 596.57 516.74 C 593.92 521.33 590.41 525.38 588.18 530.21 C 586.11 531.91 584.85 534.28 583.36 536.45 C 573.88 548.49 563.88 560.19 552.51 570.49 C 543.70 578.72 534.79 586.96 524.80 593.76 C 512.72 602.32 500.12 610.16 486.86 616.74 C 475.21 622.29 463.24 627.11 451.09 631.44 C 441.65 633.61 432.48 636.83 422.87 638.22 C 412.68 640.18 402.37 641.44 392.06 642.61 C 378.23 644.01 364.32 643.33 350.44 643.53 L 349.52 643.03 C 337.59 642.41 325.82 640.00 314.05 638.00 C 312.77 637.75 311.62 637.11 310.45 636.59 C 305.74 636.45 301.05 635.02 296.76 633.17 C 293.47 633.23 290.52 631.74 287.51 630.64 C 272.79 625.84 258.62 619.45 244.84 612.42 C 239.53 609.62 233.92 607.35 228.95 603.93 C 231.75 600.74 236.48 598.32 240.67 600.14 C 249.91 603.94 258.68 608.81 267.55 613.36 C 278.38 617.70 288.50 623.63 299.27 628.11 C 300.39 628.49 301.50 629.15 302.73 629.01 C 304.51 627.52 305.39 625.32 306.55 623.38 C 309.25 618.35 312.19 613.43 314.74 608.34 C 317.76 603.84 319.31 598.62 322.01 593.94 C 330.54 594.33 339.04 595.23 347.57 595.51 L 348.37 595.98 C 358.81 596.24 369.25 597.01 379.61 598.38 C 380.06 598.42 380.97 598.49 381.42 598.53 C 382.61 599.01 383.80 599.49 385.01 599.96 C 388.13 606.22 389.28 613.23 392.39 619.48 C 392.92 622.64 394.48 625.46 395.21 628.57 C 396.39 631.54 397.93 634.42 400.29 636.65 C 404.85 636.47 409.18 634.87 413.49 633.48 C 427.78 628.49 442.72 625.58 456.73 619.77 C 459.15 618.69 461.86 618.50 464.22 617.27 C 474.23 614.14 484.12 610.54 494.13 607.36 C 495.84 606.84 497.45 606.04 499.05 605.25 C 498.82 601.97 499.75 598.31 497.64 595.47 C 497.79 593.04 496.60 590.96 495.75 588.79 C 494.27 580.55 491.04 572.72 490.09 564.37 C 490.30 563.88 490.71 562.90 490.92 562.41 C 499.36 555.71 508.26 549.54 516.25 542.26 C 522.87 536.23 529.35 530.05 536.29 524.38 C 542.53 526.38 547.95 530.15 553.73 533.12 C 559.88 535.45 565.57 538.87 571.93 540.65 C 574.65 539.06 576.92 536.72 578.19 533.83 C 587.07 518.55 595.18 502.84 603.24 487.12 C 604.80 484.08 606.92 481.25 607.76 477.89 C 609.18 476.41 609.57 474.32 610.48 472.54 C 614.09 464.73 617.94 457.02 621.31 449.11 C 621.38 447.43 619.65 446.42 618.57 445.40 C 608.44 438.59 596.94 434.06 586.56 427.79 C 586.93 412.19 588.57 396.63 589.96 381.08 C 589.87 376.06 590.15 371.06 590.55 366.05 C 596.57 363.16 603.25 361.86 609.37 359.11 C 616.14 356.14 624.23 354.80 629.43 349.20 C 629.23 345.18 627.46 341.38 626.60 337.45 C 626.22 330.86 620.17 323.66 625.04 317.42 Z" />
<path fill="#000000" opacity="1.00" d=" M 449.57 469.62 C 458.51 462.98 467.54 456.41 477.30 451.01 C 469.21 462.20 459.48 472.27 448.40 480.53 C 435.60 490.38 420.58 496.76 405.61 502.48 C 419.76 490.89 435.00 480.68 449.57 469.62 Z" />
<path fill="#000000" opacity="1.00" d=" M 67.81 461.57 C 72.68 461.06 77.56 459.66 82.47 460.51 C 90.87 461.82 92.15 474.37 85.43 478.57 C 81.05 482.03 75.39 482.64 70.27 484.43 C 65.91 484.70 61.33 484.63 57.26 482.87 C 54.13 480.41 53.43 476.09 54.49 472.42 C 56.33 469.73 58.12 466.74 61.14 465.25 C 63.44 464.14 65.10 461.81 67.81 461.57 Z" />
<path fill="#000000" opacity="1.00" d=" M 51.73 569.53 C 54.05 566.64 56.05 563.40 59.13 561.23 C 60.39 562.71 62.17 564.33 61.45 566.50 C 56.08 577.86 48.42 587.98 43.34 599.51 C 41.40 603.74 39.23 608.04 39.07 612.80 C 38.80 618.06 39.19 624.11 42.95 628.18 C 51.24 631.24 60.25 628.91 68.30 626.20 C 76.70 622.62 85.00 618.80 93.49 615.42 C 95.96 614.18 98.46 616.14 100.30 617.64 C 103.92 621.00 107.35 624.59 110.37 628.51 C 111.35 629.58 111.49 631.03 111.63 632.41 C 107.77 633.27 104.22 635.05 100.52 636.37 C 89.63 639.74 78.81 643.31 67.84 646.40 C 62.22 647.11 57.16 650.09 51.54 650.64 C 49.43 652.01 46.89 652.16 44.49 652.68 C 36.88 654.10 29.44 656.38 21.74 657.36 C 16.48 658.04 11.25 659.40 5.90 658.99 C 4.11 659.20 3.33 657.34 2.24 656.32 C 4.46 654.13 4.16 650.78 5.55 648.15 C 10.88 636.23 16.74 624.52 23.54 613.38 C 26.14 608.19 29.77 603.61 32.26 598.37 C 34.67 595.92 36.20 592.83 37.85 589.87 C 42.20 582.90 46.96 576.21 51.73 569.53 Z" />
<path fill="#000000" opacity="1.00" d=" M 72.50 583.74 C 74.29 584.29 75.59 585.68 76.70 587.13 C 79.74 591.03 82.72 595.03 84.80 599.55 C 78.33 602.88 71.66 605.81 65.10 608.94 C 62.59 610.14 60.02 611.34 57.21 611.60 C 60.33 601.42 65.28 591.64 72.50 583.74 Z" />
</g>
</svg>
