<?xml version="1.0" encoding="UTF-8" ?>
<!DOCTYPE svg PUBLIC "-//W3C//DTD SVG 1.1//EN" "http://www.w3.org/Graphics/SVG/1.1/DTD/svg11.dtd">
<svg width="780pt" height="723pt" viewBox="0 0 780 723" version="1.1" xmlns="http://www.w3.org/2000/svg">
<g id="#ffffffff">
</g>
<g id="#000000ff">
<path fill="#000000" opacity="1.00" d=" M 744.05 32.03 C 754.84 21.68 765.32 10.91 777.18 1.74 C 778.24 4.33 778.12 7.16 777.86 9.88 C 776.79 28.88 774.34 47.79 772.39 66.72 C 769.70 82.91 767.58 99.21 763.87 115.21 C 760.30 127.30 759.01 139.95 754.97 151.90 C 753.25 156.20 753.39 161.02 751.29 165.20 C 750.76 169.54 748.98 173.55 747.78 177.72 C 742.40 193.08 738.54 209.00 731.73 223.81 C 730.21 226.90 729.60 230.30 728.39 233.50 C 724.11 243.53 720.54 253.92 714.94 263.33 C 713.86 263.01 713.04 262.39 712.48 261.48 C 706.68 250.92 703.91 238.53 695.40 229.61 C 693.42 227.36 690.44 226.53 688.02 224.87 C 681.69 229.17 676.65 234.97 671.44 240.49 C 653.07 260.77 635.52 281.80 616.24 301.22 C 603.04 315.02 589.27 328.27 575.87 341.86 C 564.13 352.80 552.37 363.70 540.57 374.58 C 528.35 385.02 516.18 395.51 503.85 405.83 C 490.16 417.97 475.25 428.62 460.89 439.94 C 454.95 444.29 449.41 449.16 443.36 453.36 C 425.40 465.72 408.18 479.14 389.69 490.72 C 374.79 500.51 359.87 510.26 344.78 519.75 C 333.92 525.83 323.50 532.68 312.51 538.53 C 284.08 555.80 254.13 570.41 224.44 585.36 C 220.20 587.13 216.10 590.19 211.32 589.86 C 204.33 587.52 199.58 581.47 193.74 577.27 C 190.42 574.30 185.14 571.30 185.24 566.41 C 194.35 559.59 204.30 553.95 214.02 548.06 C 220.76 543.31 227.91 539.17 234.91 534.83 C 250.68 524.34 267.26 515.04 282.40 503.63 C 303.65 489.31 324.59 474.50 345.11 459.13 C 360.54 446.83 376.82 435.61 391.86 422.82 C 400.58 415.55 409.56 408.58 418.19 401.20 C 424.73 395.34 431.91 390.28 438.45 384.44 C 461.17 363.85 484.68 344.08 506.14 322.14 C 518.73 310.74 530.14 298.14 542.15 286.15 C 554.04 273.71 565.76 261.10 577.30 248.33 C 588.37 235.65 599.00 222.61 609.45 209.42 C 614.00 202.69 619.63 196.76 623.87 189.80 C 632.05 178.30 641.39 167.47 647.69 154.77 C 649.53 150.15 645.32 146.50 642.80 143.18 C 639.75 138.89 636.21 134.97 633.43 130.49 C 649.21 115.79 666.71 103.10 682.85 88.82 C 704.06 70.77 723.64 50.95 744.05 32.03 Z" />
<path fill="#000000" opacity="1.00" d=" M 322.53 38.97 C 329.02 38.63 335.52 38.31 342.00 37.81 C 359.68 37.75 377.35 37.88 395.03 37.81 C 412.33 38.72 429.93 39.11 446.60 44.38 C 456.06 46.81 465.52 49.10 474.80 52.16 C 487.62 55.70 499.66 61.55 512.21 65.87 C 516.69 67.93 521.10 70.14 525.34 72.67 C 542.66 80.97 559.02 91.19 574.57 102.44 C 587.27 111.17 598.57 121.72 609.87 132.13 C 616.19 138.52 623.05 144.42 628.80 151.34 C 630.05 153.08 628.73 155.27 627.90 156.91 C 620.77 168.25 612.98 179.17 604.47 189.52 C 601.02 193.71 597.79 198.14 593.84 201.89 C 592.70 203.27 590.40 202.93 589.42 201.55 C 581.06 193.25 573.16 184.51 564.67 176.33 C 554.98 167.30 545.95 157.39 534.66 150.27 C 519.90 139.11 503.24 130.97 487.26 121.76 C 481.23 119.13 474.99 116.90 468.61 115.25 C 464.92 114.03 461.41 112.25 457.60 111.42 C 448.86 109.51 440.71 105.35 431.79 104.20 C 427.95 103.84 424.36 102.35 420.58 101.73 C 394.46 97.95 367.85 95.99 341.58 99.46 C 324.07 101.77 306.59 104.80 289.61 109.69 C 285.82 111.20 281.64 111.36 277.84 112.87 C 273.85 114.47 269.89 116.15 266.00 117.99 C 258.01 122.07 249.56 125.19 241.72 129.55 C 216.09 143.11 192.17 160.09 171.92 180.92 C 160.49 191.60 150.96 204.06 141.51 216.46 C 128.57 235.31 117.71 255.62 109.00 276.75 C 104.55 291.49 98.40 305.79 95.97 321.07 C 94.09 332.30 91.92 343.54 91.32 354.94 C 90.21 363.25 90.82 371.65 90.67 380.00 C 90.48 395.68 92.10 411.33 94.19 426.83 C 95.95 431.42 95.56 436.41 97.26 441.03 C 98.68 449.64 101.80 457.82 104.52 466.08 C 107.07 475.16 111.27 483.64 114.57 492.45 C 121.03 505.38 127.38 518.45 135.55 530.41 C 161.35 570.32 197.76 603.26 239.79 625.40 C 246.76 628.65 253.40 632.64 260.62 635.36 C 266.75 637.50 272.48 640.69 278.75 642.44 C 285.33 644.92 292.35 645.93 298.97 648.29 C 307.88 651.30 317.23 652.62 326.47 654.18 C 333.55 655.08 340.59 656.50 347.77 656.43 C 358.46 657.76 369.25 657.23 380.00 657.30 C 386.26 656.90 392.51 656.34 398.78 656.17 C 412.23 654.29 425.90 653.17 438.91 649.04 C 444.72 647.60 450.37 645.66 456.21 644.32 C 481.45 635.77 505.80 624.15 527.58 608.70 C 537.69 602.36 546.69 594.50 555.66 586.68 C 564.29 579.65 571.28 570.93 579.12 563.10 C 586.11 555.03 592.79 546.68 599.12 538.09 C 604.57 528.62 611.35 519.93 616.01 510.01 C 620.43 501.02 625.12 492.15 629.02 482.92 C 630.75 477.82 632.86 472.86 634.97 467.91 C 638.30 458.43 640.31 448.57 643.03 438.91 C 645.29 431.81 646.77 424.45 647.78 417.08 C 647.52 409.36 648.63 401.71 648.33 393.99 C 648.12 383.00 648.83 371.97 647.82 361.01 C 647.76 354.99 647.85 348.97 647.82 342.95 C 647.61 332.64 644.61 322.74 642.43 312.75 C 641.85 309.07 640.72 305.53 639.82 301.94 C 640.25 298.91 643.06 297.11 644.76 294.78 C 657.69 280.70 669.85 265.92 683.09 252.12 C 684.54 250.41 686.54 249.17 688.87 249.84 C 691.29 252.77 692.43 256.57 693.94 260.03 C 698.17 271.31 701.92 282.82 704.32 294.63 C 708.23 308.62 711.14 322.89 712.89 337.30 C 714.84 364.44 714.48 391.73 713.01 418.89 C 712.00 427.76 711.57 436.71 709.43 445.41 C 705.58 462.63 700.77 479.58 695.13 496.29 C 691.82 504.52 688.43 512.72 684.99 520.89 C 680.32 530.23 675.96 539.72 670.86 548.84 C 666.87 556.37 662.02 563.39 657.77 570.77 C 651.17 579.79 645.34 589.43 637.65 597.61 C 621.42 617.63 602.75 635.57 582.58 651.57 C 574.35 657.39 566.51 663.78 557.66 668.68 C 550.67 674.01 542.51 677.41 535.11 682.10 C 520.85 689.68 506.01 696.09 490.97 701.92 C 482.24 705.76 472.88 707.67 463.95 710.95 C 458.33 713.05 452.31 713.65 446.63 715.53 C 427.14 719.92 407.08 720.63 387.20 721.34 C 373.47 722.12 359.71 722.54 345.95 722.23 C 341.60 721.95 337.36 720.70 333.00 720.68 C 319.08 720.38 305.46 717.23 291.94 714.21 C 287.40 713.08 282.79 712.16 278.41 710.48 C 272.52 708.09 266.01 707.68 260.32 704.72 C 253.97 703.14 247.97 700.47 241.89 698.06 C 232.44 694.51 223.67 689.43 214.38 685.52 C 206.39 681.28 198.66 676.57 190.75 672.18 C 182.48 666.48 174.02 661.07 165.85 655.24 C 144.63 638.98 125.05 620.56 107.78 600.14 C 100.84 592.02 94.77 583.21 88.33 574.69 C 74.25 553.85 62.61 531.42 52.72 508.31 C 51.69 503.80 49.28 499.84 47.64 495.56 C 46.40 489.69 44.18 484.08 42.72 478.25 C 37.88 467.05 36.48 454.77 33.70 442.97 C 31.77 430.02 29.66 417.07 28.77 404.00 C 29.25 393.73 27.83 383.51 28.43 373.24 C 29.44 365.49 28.14 357.63 29.34 349.90 C 30.36 341.19 30.44 332.30 32.78 323.82 C 35.45 301.16 42.89 279.46 49.95 257.87 C 55.10 246.36 59.54 234.55 65.45 223.40 C 76.86 201.63 89.61 180.36 105.82 161.80 C 110.83 154.30 117.52 148.15 123.48 141.45 C 129.46 135.42 135.35 129.26 141.95 123.90 C 150.75 115.63 160.17 108.04 170.00 101.06 C 179.70 94.74 189.08 87.89 199.22 82.29 C 202.34 80.69 205.76 79.71 208.75 77.83 C 213.11 75.10 218.06 73.39 222.17 70.25 C 231.07 65.93 240.33 62.37 249.48 58.61 C 253.38 57.62 256.74 55.12 260.78 54.63 C 278.36 48.68 296.33 43.69 314.66 40.63 C 317.27 39.99 319.84 39.16 322.53 38.97 Z" />
<path fill="#000000" opacity="1.00" d=" M 361.88 113.47 C 374.88 112.32 387.93 113.33 400.94 113.63 C 408.76 114.35 416.68 114.72 424.29 116.80 C 429.19 118.31 434.24 119.27 439.11 120.87 C 443.36 122.77 448.17 122.67 452.45 124.50 C 458.48 126.08 464.02 128.99 469.87 131.09 C 480.73 135.04 490.83 140.69 501.13 145.84 C 511.71 152.10 522.44 158.22 531.90 166.13 C 543.82 175.40 554.97 185.69 565.13 196.86 C 570.55 202.56 575.93 208.42 579.96 215.21 C 580.63 218.70 578.29 221.64 576.19 224.12 C 568.20 233.38 560.38 242.92 550.95 250.77 C 547.13 248.45 544.24 244.98 541.29 241.70 C 534.00 233.28 526.23 225.28 519.35 216.52 C 517.83 215.10 518.84 213.13 519.41 211.53 C 523.32 202.42 527.54 193.44 531.29 184.26 C 532.06 181.48 533.97 177.83 531.63 175.36 C 514.17 164.80 495.94 155.49 477.70 146.32 C 465.53 140.33 453.53 133.96 440.96 128.83 C 435.78 132.71 433.74 139.15 430.37 144.42 C 426.30 150.80 423.74 158.12 418.78 163.91 C 411.19 164.51 403.58 162.57 396.02 161.95 C 390.99 161.57 385.97 161.14 380.96 160.59 C 373.78 160.25 366.32 161.12 359.42 158.71 C 356.53 157.77 356.58 154.50 355.70 152.13 C 353.73 147.65 352.50 142.89 350.47 138.44 C 348.15 132.61 346.95 126.05 342.63 121.26 C 341.08 120.65 339.45 121.43 337.94 121.74 C 329.22 124.65 320.28 126.70 311.57 129.69 C 302.31 131.97 293.46 135.64 284.33 138.36 C 272.02 142.97 259.02 145.64 247.06 151.19 C 245.24 152.14 242.92 152.95 242.24 155.11 C 244.31 162.40 246.80 169.58 249.12 176.81 C 250.95 181.70 252.14 186.84 252.44 192.06 C 252.08 195.47 248.80 197.39 246.49 199.50 C 232.41 209.65 219.96 221.79 206.94 233.19 C 195.26 228.89 184.56 222.36 172.90 218.02 C 170.98 217.23 168.23 216.94 167.20 219.20 C 157.88 234.29 150.30 250.36 142.02 266.03 C 134.91 280.60 126.87 294.77 121.26 310.02 C 124.70 313.84 129.65 315.54 134.01 318.02 C 141.39 322.15 148.94 325.98 156.49 329.79 C 154.97 348.02 153.89 366.30 152.32 384.53 C 151.94 386.89 151.76 389.37 150.72 391.56 C 149.10 393.57 146.37 394.01 144.09 394.91 C 134.87 398.30 125.34 401.00 116.54 405.46 C 113.95 406.54 112.77 409.70 113.84 412.26 C 116.03 419.03 118.19 425.81 120.49 432.54 C 124.10 446.04 128.06 459.49 133.24 472.49 C 136.86 483.95 140.84 495.30 144.40 506.78 C 152.89 507.07 160.61 503.33 168.75 501.62 C 174.24 499.45 180.11 498.65 185.73 496.97 C 187.43 498.70 189.23 500.35 190.72 502.28 C 196.70 510.62 203.52 518.35 208.93 527.11 C 209.49 528.01 210.52 529.36 209.15 530.13 C 200.10 537.73 189.48 543.15 179.39 549.22 C 176.56 550.20 174.03 552.14 171.05 552.61 C 168.33 551.30 166.18 549.02 164.22 546.78 C 157.71 538.83 151.87 530.36 146.15 521.84 C 142.79 515.91 139.21 510.11 135.75 504.25 C 131.80 495.27 127.49 486.47 123.38 477.57 C 122.51 474.53 121.71 471.47 120.17 468.68 C 117.11 459.55 114.24 450.35 111.98 440.98 C 108.33 430.16 107.43 418.74 105.71 407.52 C 105.08 400.04 104.51 392.55 104.40 385.05 C 103.38 378.08 104.50 371.11 104.57 364.13 C 105.60 348.13 107.25 332.08 111.36 316.53 C 112.75 311.28 113.43 305.80 115.72 300.83 C 120.86 281.11 130.05 262.71 140.02 245.02 C 145.18 236.63 150.19 228.10 156.62 220.59 C 167.56 206.06 180.25 192.95 193.47 180.51 C 230.25 145.72 278.17 123.77 327.90 115.56 C 339.16 114.14 350.53 113.53 361.88 113.47 Z" />
<path fill="#000000" opacity="1.00" d=" M 351.94 252.95 C 363.91 251.33 376.11 250.80 388.09 252.66 C 418.28 255.35 446.17 271.45 466.22 293.80 C 472.31 300.15 477.74 307.18 482.24 314.75 C 483.65 316.90 484.31 320.21 482.15 322.12 C 462.30 342.38 440.41 360.46 418.87 378.85 C 402.26 394.10 383.94 407.28 366.61 421.66 C 344.77 438.19 323.26 455.18 300.54 470.48 C 297.13 472.50 293.85 474.76 290.19 476.30 C 279.08 468.36 269.97 457.78 262.82 446.19 C 257.10 436.15 251.60 425.82 248.36 414.69 C 247.97 412.30 247.33 409.98 246.43 407.74 C 244.86 399.58 243.97 391.29 243.50 382.99 C 243.30 369.35 245.44 355.80 248.42 342.54 C 253.05 328.64 259.07 314.88 268.61 303.62 C 275.75 294.83 283.66 286.65 292.15 279.14 C 299.44 272.32 308.22 267.26 317.40 263.44 C 328.43 258.65 339.74 253.49 351.94 252.95 Z" />
<path fill="#000000" opacity="1.00" d=" M 623.04 323.83 C 622.67 320.90 624.42 315.69 628.20 317.82 C 630.72 321.09 630.05 325.58 631.65 329.26 C 633.49 339.96 634.34 350.83 634.62 361.69 C 635.76 371.77 634.38 381.88 634.48 391.98 C 633.66 402.91 633.91 413.96 631.67 424.75 C 629.84 429.97 629.56 435.54 628.71 440.96 C 626.75 448.10 623.99 454.98 621.89 462.07 C 620.02 468.21 617.75 474.22 614.93 479.99 C 602.15 511.90 582.66 541.06 558.14 565.14 C 545.85 576.94 533.29 588.65 518.84 597.82 C 503.02 608.88 485.86 617.96 467.93 625.08 C 460.76 627.55 453.95 631.10 446.47 632.60 C 424.86 638.93 402.40 642.04 379.97 643.46 C 371.32 643.56 362.66 643.46 354.01 643.51 C 345.95 643.24 338.00 641.77 330.01 640.80 C 323.31 639.52 316.46 638.81 309.94 636.71 C 304.16 636.30 298.90 633.57 293.23 632.65 C 276.74 627.35 260.73 620.60 245.34 612.66 C 239.90 609.80 234.14 607.48 229.06 603.98 C 231.69 600.55 236.73 598.31 240.89 600.22 C 252.19 604.85 262.63 611.29 273.85 616.11 C 283.60 620.28 292.68 626.10 302.85 629.20 C 310.14 617.96 316.14 605.93 322.07 593.93 C 338.08 594.88 354.08 596.22 370.10 597.22 C 374.97 598.23 380.40 597.43 384.81 600.09 C 388.31 605.79 389.07 612.76 392.04 618.74 C 393.61 623.47 394.84 628.38 397.21 632.80 C 398.34 634.46 399.55 637.01 401.98 636.54 C 405.71 636.14 409.27 634.80 412.84 633.70 C 427.05 628.70 441.92 625.79 455.90 620.10 C 470.18 615.27 484.57 610.70 498.78 605.61 C 500.35 598.04 495.96 591.27 494.70 584.04 C 493.20 577.40 490.60 570.97 490.20 564.12 C 490.94 561.81 493.27 560.53 495.01 559.02 C 509.95 549.03 522.48 536.05 536.11 524.44 C 541.35 525.80 545.87 528.89 550.59 531.41 C 553.98 533.57 557.90 534.61 561.44 536.48 C 564.78 538.20 568.28 539.62 571.94 540.46 C 573.92 539.85 575.27 538.09 576.58 536.59 C 587.66 517.92 597.26 498.41 607.45 479.25 C 611.93 469.09 616.99 459.20 621.35 448.99 C 621.09 447.16 619.33 446.05 618.00 444.99 C 607.90 438.59 596.98 433.68 586.48 428.02 C 586.98 412.33 588.54 396.70 589.95 381.06 C 590.00 376.17 589.92 371.28 590.63 366.43 C 591.11 365.32 592.44 365.04 593.46 364.62 C 602.06 362.18 610.30 358.68 618.69 355.60 C 622.56 353.92 626.97 352.51 629.57 348.97 C 627.63 340.53 625.32 332.18 623.04 323.83 Z" />
<path fill="#000000" opacity="1.00" d=" M 445.02 472.99 C 455.45 465.34 465.73 457.38 477.10 451.14 C 464.52 468.82 447.56 483.51 428.01 492.99 C 420.80 496.04 413.84 499.78 406.35 502.12 C 412.89 495.99 420.62 491.22 427.68 485.68 C 433.31 481.26 439.44 477.49 445.02 472.99 Z" />
<path fill="#000000" opacity="1.00" d=" M 51.24 570.22 C 53.66 567.08 55.81 563.64 59.08 561.30 C 60.44 562.70 62.24 564.39 61.41 566.56 C 55.59 578.74 47.33 589.63 42.13 602.15 C 38.16 610.09 37.26 620.76 42.83 628.13 C 54.15 632.02 66.21 627.49 76.49 622.57 C 82.80 620.30 88.65 616.85 95.10 614.96 C 99.06 615.56 101.64 619.02 104.37 621.62 C 107.14 624.87 110.95 627.73 111.81 632.15 C 97.91 637.53 83.59 641.69 69.33 646.00 C 60.90 647.68 52.92 651.09 44.45 652.69 C 37.26 654.06 30.21 656.12 22.95 657.19 C 16.77 657.96 10.61 659.65 4.34 658.81 C 3.89 658.32 2.98 657.35 2.53 656.87 C 9.26 636.47 20.72 618.05 31.64 599.68 C 32.75 597.57 34.46 595.85 35.64 593.78 C 40.18 585.51 45.83 577.93 51.24 570.22 Z" />
<path fill="#000000" opacity="1.00" d=" M 62.46 598.49 C 65.30 593.10 68.41 587.67 73.01 583.57 C 77.93 587.74 81.61 593.31 84.50 599.03 C 83.99 600.85 81.43 600.99 80.00 601.99 C 72.42 605.04 65.43 609.78 57.41 611.58 C 58.30 606.95 60.48 602.72 62.46 598.49 Z" />
</g>
</svg>
